<?xml version="1.0" encoding="utf-8"?>
<!-- Generator: Adobe Illustrator 26.0.1, SVG Export Plug-In . SVG Version: 6.00 Build 0)  -->
<svg version="1.1" id="レイヤー_1" xmlns="http://www.w3.org/2000/svg" xmlns:xlink="http://www.w3.org/1999/xlink" x="0px"
	 y="0px" width="40px" height="35.514px" viewBox="0 0 40 35.514" style="enable-background:new 0 0 40 35.514;"
	 xml:space="preserve">
<style type="text/css">
	.st0{fill:#1C1C1C;}
</style>
<g>
	<polygon class="st0" points="30.935,5.794 9.065,5.794 13.925,0 26.449,0 	"/>
	<g>
		<circle class="st0" cx="20" cy="19.813" r="6.355"/>
		<path class="st0" d="M37.605,3.738H2.395C1.078,3.738,0,4.816,0,6.133v26.986c0,1.317,1.078,2.395,2.395,2.395h35.21
			c1.317,0,2.395-1.078,2.395-2.395V6.133C40,4.816,38.922,3.738,37.605,3.738z M20,30.28c-5.781,0-10.467-4.686-10.467-10.467
			S14.219,9.346,20,9.346s10.467,4.686,10.467,10.467S25.781,30.28,20,30.28z"/>
	</g>
</g>
</svg>
